Coordinates
version=1
nRows=16
nColumns=36
inDegrees=yes

Units are S.I. units (second, meters, Newtons, ...)
If the header above contains a line with 'inDegrees', this indicates whether rotational values are in degrees (yes) or radians (no).

endheader
time	pelvis_tilt	pelvis_list	pelvis_rotation	pelvis_tx	pelvis_ty	pelvis_tz	hip_flexion_r	hip_adduction_r	hip_rotation_r	knee_angle_r	knee_angle_r_beta	ankle_angle_r	subtalar_angle_r	mtp_angle_r	hip_flexion_l	hip_adduction_l	hip_rotation_l	knee_angle_l	knee_angle_l_beta	ankle_angle_l	subtalar_angle_l	mtp_angle_l	lumbar_extension	lumbar_bending	lumbar_rotation	arm_flex_r	arm_add_r	arm_rot_r	elbow_flex_r	pro_sup_r	arm_flex_l	arm_add_l	arm_rot_l	elbow_flex_l	pro_sup_l
      0.00000000	     -1.94017295	      3.41111465	     80.78798539	     -0.29158216	      0.92441595	      1.64888824	    -20.50163564	     -3.96603300	     -7.67346363	     23.13972107	      0.40386432	      3.29978695	      7.84031140	     -7.46018267	     24.82170407	      0.86449032	    -21.89487057	     13.21402131	      0.23062818	      2.75689824	      8.21628669	     -7.46018267	    -16.59506376	     -2.85814887	      8.38073842	      1.47871894	     -7.60912794	    -16.67998026	     53.71659945	     90.83928379	     -8.88789817	     -1.50032536	    -36.09656543	     42.44630550	     86.70226696
      0.01000000	     -2.16125490	      3.46621443	     80.36017993	     -0.29157790	      0.92254676	      1.63075698	    -20.98926759	     -5.04193627	     -9.02702418	     23.88237814	      0.41682613	      0.67351775	      9.69563649	     -7.46861327	     24.76234072	      1.10422759	    -21.70134030	     14.80474783	      0.25839159	     -0.42962267	      5.27725164	     -7.46861327	    -16.07599630	     -3.18381058	      8.72447673	      1.07403748	     -7.49584864	    -16.91567673	     53.33740167	     91.53245586	     -9.42429770	     -1.52451837	    -36.01047719	     42.08998313	     86.18028670
      0.02000000	     -2.17576134	      3.22621127	     80.02301365	     -0.29137278	      0.92103000	      1.61370057	    -20.96657503	     -5.69097145	     -9.57465914	     24.80499222	      0.43292879	     -2.65122589	     10.34733685	     -7.48189578	     25.30125454	      1.01902501	    -21.14451226	     16.52847396	      0.28847629	     -3.06857740	      2.56969134	     -7.48189578	    -15.49976322	     -3.30132722	      9.00108612	      0.90906908	     -6.91265756	    -18.06578954	     52.85550934	     95.37826971	     -9.48717429	     -1.38404014	    -37.04478968	     41.50417376	     89.64467663
      0.03000000	     -2.72979924	      3.10621718	     80.26064853	     -0.29202139	      0.91986160	      1.59647267	    -20.50727522	     -6.53739393	     -9.30843886	     26.69542214	      0.46592301	     -6.34542687	      9.25914280	     -7.48721809	     25.66164098	      1.84241855	    -19.42019229	     18.48109242	      0.32255591	     -3.95324122	      1.18894972	     -7.48721809	    -15.00249957	     -3.90521631	      8.43204876	      0.81355945	     -6.40515014	    -18.49022310	     52.31130986	     94.66311053	     -9.62208666	     -1.37331780	    -37.68297513	     41.04309818	     88.26813501
      0.04000000	     -3.57258247	      3.06862119	     80.43264476	     -0.29263763	      0.91949963	      1.57949286	    -19.81600990	     -7.69661847	     -8.91763469	     28.81544854	      0.50292445	    -10.78804996	      7.61883748	     -7.49079193	     25.79941730	      2.79662683	    -18.94149763	     20.25608709	      0.35353541	     -5.59003639	      0.56693011	     -7.49079193	    -14.59260209	     -4.88384641	      7.94739489	      0.81993091	     -5.77081201	    -19.22802666	     51.47113202	     95.11092928	     -9.72908733	     -1.71214013	    -37.57091139	     40.52023938	     88.85815874
      0.05000000	     -4.56597559	      3.07683914	     80.64806210	     -0.29325789	      0.91980843	      1.56248909	    -19.03499159	     -8.95373746	     -8.49440043	     30.90216497	      0.53934452	    -15.71895977	      5.38539356	     -7.49224475	     25.74249956	      4.01614052	    -18.14308652	     21.66995631	      0.37821209	     -6.66135134	     -1.80957510	     -7.49224475	    -14.19487526	     -5.99513003	      7.31445388	      0.87265014	     -5.02257271	    -20.11931420	     50.53975938	     94.50879627	     -9.65008652	     -1.88994185	    -38.03519364	     39.82791000	     87.95941333
      0.06000000	     -5.33893344	      3.23509798	     80.68500747	     -0.29407063	      0.92035128	      1.54535704	    -18.23254815	    -10.06977015	     -7.75064043	     33.05360084	      0.57689416	    -20.58770815	      3.85047528	     -7.49376071	     25.56570707	      5.17543116	    -16.98146988	     23.15365771	      0.40410756	     -6.61504040	     -4.39736667	     -7.49376071	    -13.96787137	     -6.85880164	      6.97975571	      0.64872789	     -4.63556727	    -20.70202221	     50.02218335	     95.74479367	     -9.59770417	     -2.11157511	    -37.96900234	     39.20057063	     89.26383703
      0.07000000	     -5.69172611	      3.47429195	     80.69192396	     -0.29456132	      0.92102243	      1.52860804	    -17.40092573	    -10.61362466	     -6.51755378	     35.29687677	      0.61604672	    -24.55083845	      2.64643393	     -7.49416510	     25.15784780	      5.94238672	    -15.81422509	     24.71553099	      0.43136739	     -5.30384179	     -6.58872900	     -7.49416510	    -14.01797258	     -7.24868599	      6.59468452	      0.52339854	     -4.37735795	    -21.03358407	     49.64621416	     95.10231421	     -9.53498539	     -2.22525081	    -37.86118296	     38.75885414	     88.89539616
      0.08000000	     -5.88124408	      3.66866837	     80.68436520	     -0.29496195	      0.92182961	      1.51246276	    -16.24480633	    -10.95457297	     -5.19963308	     37.93868229	      0.66215492	    -28.01823301	      0.47701761	     -7.49458828	     24.67578936	      6.54102569	    -14.72827020	     26.21252336	      0.45749484	     -3.59605981	     -7.96641384	     -7.49458828	    -14.05332941	     -7.49605106	      6.42964368	      0.29623113	     -4.19214407	    -21.43751344	     49.38644279	     94.70836198	     -9.23367965	     -2.29864782	    -37.74784949	     38.28894573	     88.61491347
      0.09000000	     -6.03370031	      3.93760699	     80.67333064	     -0.29518260	      0.92303063	      1.49658858	    -14.98796807	    -11.27582490	     -4.07523407	     41.01833383	      0.71590498	    -30.81748265	     -2.07097968	     -7.49492635	     23.92020466	      7.08449595	    -13.87858714	     27.31547615	      0.47674500	     -1.96630674	     -9.07959630	     -7.49492635	    -14.22722024	     -7.69980267	      6.12127021	      0.17442791	     -4.02597484	    -21.69265027	     49.05016850	     94.42446473	     -8.93675684	     -2.41571768	    -37.53493179	     37.96256283	     88.41296654
      0.10000000	     -6.16567266	      4.13589737	     80.67000844	     -0.29550576	      0.92480221	      1.48107654	    -13.46712021	    -11.56747537	     -3.27242655	     44.24087679	      0.77214896	    -32.40152983	     -4.73573953	     -7.49524874	     22.99401340	      7.62608778	    -13.17122556	     27.89439909	      0.48684911	     -0.73089669	     -9.84211634	     -7.49524874	    -14.34328100	     -7.80450237	      5.79181407	      0.11939133	     -3.86802234	    -22.09691798	     48.64398482	     94.52120634	     -8.50453376	     -2.50603160	    -37.39263591	     37.39966956	     88.52182773
      0.11000000	     -6.64199783	      4.44084179	     80.77396659	     -0.29604620	      0.92727469	      1.46614030	    -11.91628534	    -12.34062698	     -2.95189791	     47.44893165	      0.82814008	    -31.88200379	     -7.70667973	     -7.49541662	     21.55259047	      8.61284343	    -12.66837682	     27.44156873	      0.47894573	      0.19894136	     -9.99964632	     -7.49541662	    -14.65632138	     -8.27298229	      5.14835976	      0.24110633	     -3.71317847	    -22.22528781	     48.12835400	     94.39763858	     -7.96237311	     -2.68374324	    -37.19977948	     36.86358319	     88.46354530
      0.12000000	     -6.96574971	      4.64071821	     80.74318294	     -0.29616584	      0.93020636	      1.45182088	    -10.15070938	    -12.73987494	     -2.24769563	     50.46642226	      0.88080523	    -31.24829838	    -11.98684386	     -7.49554298	     20.04309419	      9.31259151	    -12.54089000	     26.65160453	      0.46515825	      0.84604447	     -9.89530165	     -7.49554298	    -14.86758778	     -8.62577537	      4.70642298	      0.41181127	     -3.52854384	    -22.49039903	     47.52028227	     94.46989103	     -7.29428588	     -2.84214959	    -37.01914946	     36.30143558	     88.56338680
      0.13000000	     -7.23058083	      4.58404988	     80.69272728	     -0.29626265	      0.93303890	      1.43803982	     -7.86140235	    -13.03690717	     -1.76015894	     53.48363268	      0.93346549	    -29.01979089	    -15.63809429	     -7.49572540	     18.75633958	      9.82482493	    -12.73170916	     25.73404392	      0.44914380	      1.37051467	     -9.30587534	     -7.49572540	    -14.85410615	     -8.85586333	      4.39525651	      0.52085167	     -3.40330822	    -22.93710179	     46.99544172	     94.48941674	     -6.49490501	     -3.04999572	    -36.77833386	     35.73868286	     88.61219005
      0.14000000	     -7.23041359	      4.69311680	     80.76933417	     -0.29673994	      0.93637532	      1.42440940	     -5.78753368	    -13.08998766	     -1.62802866	     56.12656818	      0.97959341	    -25.64736491	    -18.56480219	     -7.49584619	     17.19855776	     10.17311675	    -12.60736334	     24.77403331	      0.43238845	      2.09006248	     -8.74457727	     -7.49584619	    -15.07183216	     -8.74881706	      3.88568019	      0.67088514	     -3.44249872	    -23.05915482	     46.53224720	     94.32640842	     -5.72996383	     -3.13909808	    -36.52048345	     35.28939330	     88.48792792
      0.15000000	     -7.37887998	      4.41741574	     80.57350162	     -0.29673706	      0.93940428	      1.41106707	     -3.00906826	    -13.20650200	     -1.12581909	     58.66621308	      1.02391858	    -23.15242772	    -22.12092063	     -7.49599679	     15.96414910	     10.42761443	    -13.27454380	     23.50900726	      0.41030958	      2.44837417	     -7.21823941	     -7.49599679	    -14.77677724	     -8.81365271	      3.73112702	      0.76434674	     -3.38553033	    -23.51899377	     45.96937757	     94.68090241	     -4.93106776	     -3.23535153	    -36.23582770	     34.84790181	     88.72558736
